<svg width="48" height="48" viewBox="0 0 48 48" fill="none" xmlns="http://www.w3.org/2000/svg">
<path d="M47.9811 23.5949C47.9874 23.4309 47.9811 23.2732 47.9748 23.1092C47.7861 19.7161 44.8856 17.1176 41.4944 17.3069C38.1724 17.4961 35.6179 20.2963 35.6997 23.6075C35.6997 23.6138 35.6997 23.6138 35.6997 23.6201C35.7501 28.6719 32.4343 33.604 27.4954 35.1302C24.5194 36.07 21.3421 35.7735 18.5737 34.3103C16.466 33.194 14.7043 31.5542 13.6096 29.4792C12.8609 28.0286 12.4142 26.4141 12.3198 24.7301C12.1436 21.6082 13.1943 18.5935 15.2832 16.2536C18.8002 12.3118 24.8654 11.391 29.4709 13.7245C29.4709 13.7245 29.4709 13.7245 29.4772 13.7245C29.515 13.7434 29.5464 13.7624 29.5842 13.775C29.6157 13.7876 29.6471 13.8065 29.6786 13.8191C30.4273 14.1408 31.2452 14.3174 32.1072 14.3174C35.5173 14.3174 38.2856 11.5486 38.2856 8.12396C38.2856 5.75886 36.9644 3.70911 35.0202 2.66216C35.0139 2.66216 35.0139 2.65585 35.0076 2.64955C34.8441 2.56756 34.6805 2.49818 34.5169 2.41619C30.8803 0.637635 26.8347 -0.19488 22.6822 0.038476C16.2773 0.397971 10.3945 3.22978 6.12245 8.01674C1.8441 12.8352 -0.320246 19.0097 0.0383808 25.4239C0.371841 31.4028 2.88852 36.8016 7.09137 40.9768C7.09767 40.9831 7.10396 40.9831 7.10396 40.9894C7.31788 41.1975 7.53179 41.4056 7.75829 41.6138C7.80863 41.6579 7.85896 41.7084 7.9093 41.7525C7.95963 41.7967 8.00367 41.8408 8.05401 41.885C8.10434 41.9291 8.15467 41.9669 8.20501 42.0111C9.60805 43.2473 11.1684 44.332 12.8609 45.2213C18.536 48.2171 25.0416 48.81 31.1697 46.9053C41.1861 43.7896 47.9434 33.8373 48 23.6075C47.9811 23.6075 47.9811 23.6012 47.9811 23.5949Z" fill="#F56300"/>
</svg>
